<svg id="visual" viewBox="0 0 960 300" width="960" height="300" xmlns="http://www.w3.org/2000/svg" xmlns:xlink="http://www.w3.org/1999/xlink" version="1.1"><rect x="0" y="0" width="960" height="300" fill="#ffffff"></rect><defs><linearGradient id="grad1_0" x1="68.8%" y1="0%" x2="100%" y2="100%"><stop offset="-14.000000000000007%" stop-color="#2dc46a" stop-opacity="1"></stop><stop offset="114.00000000000001%" stop-color="#2dc46a" stop-opacity="1"></stop></linearGradient></defs><defs><linearGradient id="grad1_1" x1="68.8%" y1="0%" x2="100%" y2="100%"><stop offset="-14.000000000000007%" stop-color="#2dc46a" stop-opacity="1"></stop><stop offset="114.00000000000001%" stop-color="#a5e3b3" stop-opacity="1"></stop></linearGradient></defs><defs><linearGradient id="grad1_2" x1="68.8%" y1="0%" x2="100%" y2="100%"><stop offset="-14.000000000000007%" stop-color="#ffffff" stop-opacity="1"></stop><stop offset="114.00000000000001%" stop-color="#a5e3b3" stop-opacity="1"></stop></linearGradient></defs><defs><linearGradient id="grad2_0" x1="0%" y1="0%" x2="31.3%" y2="100%"><stop offset="-14.000000000000007%" stop-color="#2dc46a" stop-opacity="1"></stop><stop offset="114.00000000000001%" stop-color="#2dc46a" stop-opacity="1"></stop></linearGradient></defs><defs><linearGradient id="grad2_1" x1="0%" y1="0%" x2="31.3%" y2="100%"><stop offset="-14.000000000000007%" stop-color="#a5e3b3" stop-opacity="1"></stop><stop offset="114.00000000000001%" stop-color="#2dc46a" stop-opacity="1"></stop></linearGradient></defs><defs><linearGradient id="grad2_2" x1="0%" y1="0%" x2="31.3%" y2="100%"><stop offset="-14.000000000000007%" stop-color="#a5e3b3" stop-opacity="1"></stop><stop offset="114.00000000000001%" stop-color="#ffffff" stop-opacity="1"></stop></linearGradient></defs><g transform="translate(960, 0)"><path d="M0 270C-44.4 258.6 -88.8 247.1 -130.5 226C-172.2 205 -211 174.3 -233.8 135C-256.6 95.7 -263.3 47.9 -270 0L0 0Z" fill="#d3f1d9"></path><path d="M0 180C-29.6 172.4 -59.2 164.7 -87 150.7C-114.8 136.6 -140.7 116.2 -155.9 90C-171.1 63.8 -175.5 31.9 -180 0L0 0Z" fill="#73d48e"></path><path d="M0 90C-14.8 86.2 -29.6 82.4 -43.5 75.3C-57.4 68.3 -70.3 58.1 -77.9 45C-85.5 31.9 -87.8 16 -90 0L0 0Z" fill="#2dc46a"></path></g><g transform="translate(0, 300)"><path d="M0 -270C45.2 -259.9 90.4 -249.9 132 -228.6C173.6 -207.4 211.4 -175 233.8 -135C256.2 -95 263.1 -47.5 270 0L0 0Z" fill="#d3f1d9"></path><path d="M0 -180C30.1 -173.3 60.3 -166.6 88 -152.4C115.7 -138.3 141 -116.6 155.9 -90C170.8 -63.4 175.4 -31.7 180 0L0 0Z" fill="#73d48e"></path><path d="M0 -90C15.1 -86.6 30.1 -83.3 44 -76.2C57.9 -69.1 70.5 -58.3 77.9 -45C85.4 -31.7 87.7 -15.8 90 0L0 0Z" fill="#2dc46a"></path></g></svg>