<svg id="visual" viewBox="0 0 960 300" width="960" height="300" xmlns="http://www.w3.org/2000/svg" xmlns:xlink="http://www.w3.org/1999/xlink" version="1.1"><path d="M0 179L137 163L274 174L411 154L549 207L686 171L823 172L960 166L960 301L823 301L686 301L549 301L411 301L274 301L137 301L0 301Z" fill="#94fcbd"></path><path d="M0 188L137 216L274 179L411 203L549 227L686 186L823 204L960 196L960 301L823 301L686 301L549 301L411 301L274 301L137 301L0 301Z" fill="#7deea9"></path><path d="M0 206L137 229L274 243L411 237L549 225L686 224L823 204L960 206L960 301L823 301L686 301L549 301L411 301L274 301L137 301L0 301Z" fill="#65e094"></path><path d="M0 231L137 246L274 242L411 238L549 229L686 248L823 247L960 241L960 301L823 301L686 301L549 301L411 301L274 301L137 301L0 301Z" fill="#4cd27f"></path><path d="M0 266L137 255L274 274L411 277L549 265L686 280L823 273L960 271L960 301L823 301L686 301L549 301L411 301L274 301L137 301L0 301Z" fill="#2dc46a"></path></svg>