<svg id="visual" viewBox="0 0 960 300" width="960" height="300" xmlns="http://www.w3.org/2000/svg" xmlns:xlink="http://www.w3.org/1999/xlink" version="1.1"><path d="M0 178L14.5 168.7C29 159.3 58 140.7 87.2 143.2C116.3 145.7 145.7 169.3 174.8 180C204 190.7 233 188.3 262 187.3C291 186.3 320 186.7 349 183.2C378 179.7 407 172.3 436.2 163.5C465.3 154.7 494.7 144.3 523.8 144C553 143.7 582 153.3 611 158.7C640 164 669 165 698 172.2C727 179.3 756 192.7 785.2 195C814.3 197.3 843.7 188.7 872.8 186.3C902 184 931 188 945.5 190L960 192L960 301L945.5 301C931 301 902 301 872.8 301C843.7 301 814.3 301 785.2 301C756 301 727 301 698 301C669 301 640 301 611 301C582 301 553 301 523.8 301C494.7 301 465.3 301 436.2 301C407 301 378 301 349 301C320 301 291 301 262 301C233 301 204 301 174.8 301C145.7 301 116.3 301 87.2 301C58 301 29 301 14.5 301L0 301Z" fill="#abe7c3"></path><path d="M0 191L14.5 194C29 197 58 203 87.2 203.3C116.3 203.7 145.7 198.3 174.8 194.2C204 190 233 187 262 182.2C291 177.3 320 170.7 349 166.8C378 163 407 162 436.2 169.3C465.3 176.7 494.7 192.3 523.8 199C553 205.7 582 203.3 611 204.5C640 205.7 669 210.3 698 211.7C727 213 756 211 785.2 206C814.3 201 843.7 193 872.8 196.3C902 199.7 931 214.3 945.5 221.7L960 229L960 301L945.5 301C931 301 902 301 872.8 301C843.7 301 814.3 301 785.2 301C756 301 727 301 698 301C669 301 640 301 611 301C582 301 553 301 523.8 301C494.7 301 465.3 301 436.2 301C407 301 378 301 349 301C320 301 291 301 262 301C233 301 204 301 174.8 301C145.7 301 116.3 301 87.2 301C58 301 29 301 14.5 301L0 301Z" fill="#8fdfae"></path><path d="M0 193L14.5 192.5C29 192 58 191 87.2 200C116.3 209 145.7 228 174.8 228C204 228 233 209 262 202.7C291 196.3 320 202.7 349 205.8C378 209 407 209 436.2 215.3C465.3 221.7 494.7 234.3 523.8 239.3C553 244.3 582 241.7 611 238.5C640 235.3 669 231.7 698 228.5C727 225.3 756 222.7 785.2 224.8C814.3 227 843.7 234 872.8 233.7C902 233.3 931 225.7 945.5 221.8L960 218L960 301L945.5 301C931 301 902 301 872.8 301C843.7 301 814.3 301 785.2 301C756 301 727 301 698 301C669 301 640 301 611 301C582 301 553 301 523.8 301C494.7 301 465.3 301 436.2 301C407 301 378 301 349 301C320 301 291 301 262 301C233 301 204 301 174.8 301C145.7 301 116.3 301 87.2 301C58 301 29 301 14.5 301L0 301Z" fill="#73d698"></path><path d="M0 250L14.5 245.8C29 241.7 58 233.3 87.2 228.5C116.3 223.7 145.7 222.3 174.8 225.7C204 229 233 237 262 244.3C291 251.7 320 258.3 349 259.2C378 260 407 255 436.2 254.5C465.3 254 494.7 258 523.8 255.7C553 253.3 582 244.7 611 242.7C640 240.7 669 245.3 698 247.2C727 249 756 248 785.2 249.3C814.3 250.7 843.7 254.3 872.8 250.2C902 246 931 234 945.5 228L960 222L960 301L945.5 301C931 301 902 301 872.8 301C843.7 301 814.3 301 785.2 301C756 301 727 301 698 301C669 301 640 301 611 301C582 301 553 301 523.8 301C494.7 301 465.3 301 436.2 301C407 301 378 301 349 301C320 301 291 301 262 301C233 301 204 301 174.8 301C145.7 301 116.3 301 87.2 301C58 301 29 301 14.5 301L0 301Z" fill="#54cd81"></path><path d="M0 263L14.5 262.3C29 261.7 58 260.3 87.2 260.7C116.3 261 145.7 263 174.8 260.8C204 258.7 233 252.3 262 248.8C291 245.3 320 244.7 349 250.8C378 257 407 270 436.2 274.3C465.3 278.7 494.7 274.3 523.8 268.8C553 263.3 582 256.7 611 256.7C640 256.7 669 263.3 698 265C727 266.7 756 263.3 785.2 263.2C814.3 263 843.7 266 872.8 267.7C902 269.3 931 269.7 945.5 269.8L960 270L960 301L945.5 301C931 301 902 301 872.8 301C843.7 301 814.3 301 785.2 301C756 301 727 301 698 301C669 301 640 301 611 301C582 301 553 301 523.8 301C494.7 301 465.3 301 436.2 301C407 301 378 301 349 301C320 301 291 301 262 301C233 301 204 301 174.8 301C145.7 301 116.3 301 87.2 301C58 301 29 301 14.5 301L0 301Z" fill="#2dc46a"></path></svg>