<svg id="visual" viewBox="0 0 960 300" width="960" height="300" xmlns="http://www.w3.org/2000/svg" xmlns:xlink="http://www.w3.org/1999/xlink" version="1.1"><path d="M0 178L10.7 177.7C21.3 177.3 42.7 176.7 64 186.2C85.3 195.7 106.7 215.3 128 216.8C149.3 218.3 170.7 201.7 192 200.5C213.3 199.3 234.7 213.7 256 211.7C277.3 209.7 298.7 191.3 320 189.7C341.3 188 362.7 203 384 204.5C405.3 206 426.7 194 448 193.3C469.3 192.7 490.7 203.3 512 202.8C533.3 202.3 554.7 190.7 576 189.3C597.3 188 618.7 197 640 204.8C661.3 212.7 682.7 219.3 704 214.7C725.3 210 746.7 194 768 193.2C789.3 192.3 810.7 206.7 832 212.3C853.3 218 874.7 215 896 210.7C917.3 206.3 938.7 200.7 949.3 197.8L960 195L960 301L949.3 301C938.7 301 917.3 301 896 301C874.7 301 853.3 301 832 301C810.7 301 789.3 301 768 301C746.7 301 725.3 301 704 301C682.7 301 661.3 301 640 301C618.7 301 597.3 301 576 301C554.7 301 533.3 301 512 301C490.7 301 469.3 301 448 301C426.7 301 405.3 301 384 301C362.7 301 341.3 301 320 301C298.7 301 277.3 301 256 301C234.7 301 213.3 301 192 301C170.7 301 149.3 301 128 301C106.7 301 85.3 301 64 301C42.7 301 21.3 301 10.7 301L0 301Z" fill="#2dc46a" stroke-linecap="round" stroke-linejoin="miter"></path></svg>